<mxfile host="app.diagrams.net" agent="Mozilla/5.0 (Windows NT 10.0; Win64; x64) AppleWebKit/537.36 (KHTML, like Gecko) Chrome/132.0.0.0 Safari/537.36 OPR/117.0.0.0" version="26.1.1">
  <diagram name="Page-1" id="UEwbOecRu84DVzue0_Sg">
    <mxGraphModel grid="1" page="1" gridSize="10" guides="1" tooltips="1" connect="1" arrows="1" fold="1" pageScale="1" pageWidth="850" pageHeight="1100" math="0" shadow="0">
      <root>
        <mxCell id="0" />
        <mxCell id="1" parent="0" />
        <mxCell id="WpSMhEHBoNJNKIzTw2ys-1" value="" style="ellipse;html=1;shape=startState;fillColor=#000000;strokeColor=#ff0000;" vertex="1" parent="1">
          <mxGeometry x="-160" y="60" width="30" height="30" as="geometry" />
        </mxCell>
        <mxCell id="WpSMhEHBoNJNKIzTw2ys-2" value="" style="edgeStyle=orthogonalEdgeStyle;html=1;verticalAlign=bottom;endArrow=open;endSize=8;strokeColor=#ff0000;rounded=0;" edge="1" parent="1" source="WpSMhEHBoNJNKIzTw2ys-1">
          <mxGeometry relative="1" as="geometry">
            <mxPoint x="-60" y="75" as="targetPoint" />
          </mxGeometry>
        </mxCell>
        <mxCell id="WpSMhEHBoNJNKIzTw2ys-4" value="Log in" style="rounded=1;whiteSpace=wrap;html=1;" vertex="1" parent="1">
          <mxGeometry x="-60" y="45" width="120" height="60" as="geometry" />
        </mxCell>
        <mxCell id="WpSMhEHBoNJNKIzTw2ys-6" value="" style="endArrow=classic;html=1;rounded=0;exitX=1;exitY=0.5;exitDx=0;exitDy=0;" edge="1" parent="1" source="WpSMhEHBoNJNKIzTw2ys-4">
          <mxGeometry width="50" height="50" relative="1" as="geometry">
            <mxPoint x="600" y="130" as="sourcePoint" />
            <mxPoint x="140" y="75" as="targetPoint" />
          </mxGeometry>
        </mxCell>
        <mxCell id="WpSMhEHBoNJNKIzTw2ys-7" value="Profile view" style="rounded=1;whiteSpace=wrap;html=1;" vertex="1" parent="1">
          <mxGeometry x="330" y="45" width="120" height="60" as="geometry" />
        </mxCell>
        <mxCell id="WpSMhEHBoNJNKIzTw2ys-8" value="" style="endArrow=classic;html=1;rounded=0;exitX=1;exitY=0.5;exitDx=0;exitDy=0;" edge="1" parent="1">
          <mxGeometry width="50" height="50" relative="1" as="geometry">
            <mxPoint x="450" y="74.66" as="sourcePoint" />
            <mxPoint x="670" y="74.78999999999999" as="targetPoint" />
          </mxGeometry>
        </mxCell>
        <mxCell id="WpSMhEHBoNJNKIzTw2ys-10" value="Manual TA work assignment page" style="rounded=1;whiteSpace=wrap;html=1;" vertex="1" parent="1">
          <mxGeometry x="670" y="45" width="120" height="60" as="geometry" />
        </mxCell>
        <mxCell id="WpSMhEHBoNJNKIzTw2ys-11" value="Submit completed tasks page" style="rounded=1;whiteSpace=wrap;html=1;" vertex="1" parent="1">
          <mxGeometry x="320" y="190" width="120" height="60" as="geometry" />
        </mxCell>
        <mxCell id="WpSMhEHBoNJNKIzTw2ys-12" value="" style="endArrow=classic;html=1;rounded=0;entryX=0.25;entryY=0;entryDx=0;entryDy=0;exitX=0.5;exitY=1.083;exitDx=0;exitDy=0;exitPerimeter=0;" edge="1" parent="1" target="WpSMhEHBoNJNKIzTw2ys-11">
          <mxGeometry width="50" height="50" relative="1" as="geometry">
            <mxPoint x="349.99" y="105.00000000000001" as="sourcePoint" />
            <mxPoint x="349.99" y="185.02" as="targetPoint" />
          </mxGeometry>
        </mxCell>
        <mxCell id="WpSMhEHBoNJNKIzTw2ys-13" value="" style="endArrow=classic;html=1;rounded=0;exitX=1;exitY=0.5;exitDx=0;exitDy=0;" edge="1" parent="1">
          <mxGeometry width="50" height="50" relative="1" as="geometry">
            <mxPoint x="960" y="74.66" as="sourcePoint" />
            <mxPoint x="1030" y="74.66" as="targetPoint" />
          </mxGeometry>
        </mxCell>
        <mxCell id="WpSMhEHBoNJNKIzTw2ys-14" value="TA is unavaliable" style="rounded=1;whiteSpace=wrap;html=1;" vertex="1" parent="1">
          <mxGeometry x="1030" y="45" width="120" height="60" as="geometry" />
        </mxCell>
        <mxCell id="WpSMhEHBoNJNKIzTw2ys-17" value="" style="endArrow=classic;html=1;rounded=0;exitX=0.5;exitY=0;exitDx=0;exitDy=0;entryX=0.5;entryY=0;entryDx=0;entryDy=0;" edge="1" parent="1" source="WpSMhEHBoNJNKIzTw2ys-14" target="WpSMhEHBoNJNKIzTw2ys-7">
          <mxGeometry width="50" height="50" relative="1" as="geometry">
            <mxPoint x="460" y="100" as="sourcePoint" />
            <mxPoint x="400" as="targetPoint" />
            <Array as="points">
              <mxPoint x="1090" />
              <mxPoint x="390" />
            </Array>
          </mxGeometry>
        </mxCell>
        <mxCell id="WpSMhEHBoNJNKIzTw2ys-18" value="TA is avalable" style="rounded=1;whiteSpace=wrap;html=1;" vertex="1" parent="1">
          <mxGeometry x="860" y="140" width="120" height="60" as="geometry" />
        </mxCell>
        <mxCell id="WpSMhEHBoNJNKIzTw2ys-19" value="" style="endArrow=classic;html=1;rounded=0;exitX=0.5;exitY=1;exitDx=0;exitDy=0;entryX=0.5;entryY=0;entryDx=0;entryDy=0;" edge="1" parent="1" target="WpSMhEHBoNJNKIzTw2ys-18">
          <mxGeometry width="50" height="50" relative="1" as="geometry">
            <mxPoint x="920" y="105" as="sourcePoint" />
            <mxPoint x="810" y="240" as="targetPoint" />
          </mxGeometry>
        </mxCell>
        <mxCell id="WpSMhEHBoNJNKIzTw2ys-20" value="Task is assigned successfully" style="text;strokeColor=none;align=center;fillColor=none;html=1;verticalAlign=middle;whiteSpace=wrap;rounded=0;" vertex="1" parent="1">
          <mxGeometry x="540" y="220" width="130" height="30" as="geometry" />
        </mxCell>
        <mxCell id="WpSMhEHBoNJNKIzTw2ys-21" value="" style="endArrow=classic;html=1;rounded=0;exitX=0.5;exitY=1;exitDx=0;exitDy=0;entryX=0.5;entryY=1;entryDx=0;entryDy=0;" edge="1" parent="1" source="WpSMhEHBoNJNKIzTw2ys-18" target="WpSMhEHBoNJNKIzTw2ys-7">
          <mxGeometry width="50" height="50" relative="1" as="geometry">
            <mxPoint x="570" y="140" as="sourcePoint" />
            <mxPoint x="620" y="90" as="targetPoint" />
            <Array as="points">
              <mxPoint x="920" y="250" />
              <mxPoint x="480" y="250" />
              <mxPoint x="480" y="160" />
              <mxPoint x="390" y="160" />
            </Array>
          </mxGeometry>
        </mxCell>
        <mxCell id="WpSMhEHBoNJNKIzTw2ys-22" value="Task is not assigned" style="text;strokeColor=none;align=center;fillColor=none;html=1;verticalAlign=middle;whiteSpace=wrap;rounded=0;" vertex="1" parent="1">
          <mxGeometry x="620" y="-20" width="130" height="30" as="geometry" />
        </mxCell>
        <mxCell id="WpSMhEHBoNJNKIzTw2ys-23" value="Correct login credentials" style="rounded=1;whiteSpace=wrap;html=1;" vertex="1" parent="1">
          <mxGeometry x="140" y="45" width="120" height="60" as="geometry" />
        </mxCell>
        <mxCell id="WpSMhEHBoNJNKIzTw2ys-24" value="" style="endArrow=classic;html=1;rounded=0;exitX=1;exitY=0.5;exitDx=0;exitDy=0;" edge="1" parent="1">
          <mxGeometry width="50" height="50" relative="1" as="geometry">
            <mxPoint x="260" y="74.66" as="sourcePoint" />
            <mxPoint x="330" y="75" as="targetPoint" />
          </mxGeometry>
        </mxCell>
        <mxCell id="WpSMhEHBoNJNKIzTw2ys-25" value="" style="endArrow=classic;html=1;rounded=0;exitX=0.5;exitY=0;exitDx=0;exitDy=0;entryX=0.25;entryY=1;entryDx=0;entryDy=0;" edge="1" parent="1" target="WpSMhEHBoNJNKIzTw2ys-26">
          <mxGeometry width="50" height="50" relative="1" as="geometry">
            <mxPoint x="-30.000000000000227" y="45" as="sourcePoint" />
            <mxPoint x="-30" y="-20" as="targetPoint" />
          </mxGeometry>
        </mxCell>
        <mxCell id="WpSMhEHBoNJNKIzTw2ys-26" value="Incorrect login credentials message popup" style="rounded=1;whiteSpace=wrap;html=1;" vertex="1" parent="1">
          <mxGeometry x="-60" y="-140" width="120" height="60" as="geometry" />
        </mxCell>
        <mxCell id="WpSMhEHBoNJNKIzTw2ys-27" value="" style="endArrow=classic;html=1;rounded=0;exitX=0.5;exitY=0;exitDx=0;exitDy=0;entryX=0.25;entryY=1;entryDx=0;entryDy=0;" edge="1" parent="1">
          <mxGeometry width="50" height="50" relative="1" as="geometry">
            <mxPoint x="30" y="-80" as="sourcePoint" />
            <mxPoint x="29.999999999999773" y="45" as="targetPoint" />
          </mxGeometry>
        </mxCell>
        <mxCell id="WpSMhEHBoNJNKIzTw2ys-28" value="" style="endArrow=classic;html=1;rounded=0;exitX=0.5;exitY=0;exitDx=0;exitDy=0;entryX=0.5;entryY=0;entryDx=0;entryDy=0;" edge="1" parent="1" target="WpSMhEHBoNJNKIzTw2ys-29">
          <mxGeometry width="50" height="50" relative="1" as="geometry">
            <mxPoint x="-1" y="105" as="sourcePoint" />
            <mxPoint x="-1.0000000000002274" y="185" as="targetPoint" />
          </mxGeometry>
        </mxCell>
        <mxCell id="WpSMhEHBoNJNKIzTw2ys-29" value="Forget password page" style="rounded=1;whiteSpace=wrap;html=1;" vertex="1" parent="1">
          <mxGeometry x="-60" y="180" width="120" height="60" as="geometry" />
        </mxCell>
        <mxCell id="WpSMhEHBoNJNKIzTw2ys-31" value="" style="endArrow=classic;html=1;rounded=0;exitX=0.5;exitY=1;exitDx=0;exitDy=0;" edge="1" parent="1" source="WpSMhEHBoNJNKIzTw2ys-29">
          <mxGeometry width="50" height="50" relative="1" as="geometry">
            <mxPoint x="190" y="280" as="sourcePoint" />
            <mxPoint y="320" as="targetPoint" />
          </mxGeometry>
        </mxCell>
        <mxCell id="WpSMhEHBoNJNKIzTw2ys-32" value="Sends email to reset password" style="rounded=1;whiteSpace=wrap;html=1;" vertex="1" parent="1">
          <mxGeometry x="-60" y="320" width="120" height="60" as="geometry" />
        </mxCell>
        <mxCell id="WpSMhEHBoNJNKIzTw2ys-35" value="Manual TA assignment" style="text;strokeColor=none;align=center;fillColor=none;html=1;verticalAlign=middle;whiteSpace=wrap;rounded=0;" vertex="1" parent="1">
          <mxGeometry x="500" y="45" width="130" height="30" as="geometry" />
        </mxCell>
        <mxCell id="WpSMhEHBoNJNKIzTw2ys-36" value="&lt;span style=&quot;color: rgb(0, 0, 0); font-family: Helvetica; font-size: 12px; font-style: normal; font-variant-ligatures: normal; font-variant-caps: normal; font-weight: 400; letter-spacing: normal; orphans: 2; text-align: center; text-indent: 0px; text-transform: none; widows: 2; word-spacing: 0px; -webkit-text-stroke-width: 0px; white-space: normal; background-color: rgb(251, 251, 251); text-decoration-thickness: initial; text-decoration-style: initial; text-decoration-color: initial; float: none; display: inline !important;&quot;&gt;Incorrect login credentials&lt;/span&gt;" style="text;whiteSpace=wrap;html=1;" vertex="1" parent="1">
          <mxGeometry x="-120" y="-30" width="90" height="40" as="geometry" />
        </mxCell>
        <mxCell id="WpSMhEHBoNJNKIzTw2ys-37" value="&lt;span style=&quot;color: rgb(0, 0, 0); font-family: Helvetica; font-size: 12px; font-style: normal; font-variant-ligatures: normal; font-variant-caps: normal; font-weight: 400; letter-spacing: normal; orphans: 2; text-align: center; text-indent: 0px; text-transform: none; widows: 2; word-spacing: 0px; -webkit-text-stroke-width: 0px; white-space: normal; background-color: rgb(251, 251, 251); text-decoration-thickness: initial; text-decoration-style: initial; text-decoration-color: initial; float: none; display: inline !important;&quot;&gt;click &quot;Forget password button&quot;&lt;/span&gt;" style="text;whiteSpace=wrap;html=1;" vertex="1" parent="1">
          <mxGeometry y="120" width="100" height="40" as="geometry" />
        </mxCell>
        <mxCell id="WpSMhEHBoNJNKIzTw2ys-40" value="" style="endArrow=classic;html=1;rounded=0;exitX=0.5;exitY=1;exitDx=0;exitDy=0;" edge="1" parent="1" source="WpSMhEHBoNJNKIzTw2ys-11">
          <mxGeometry width="50" height="50" relative="1" as="geometry">
            <mxPoint x="390" y="339.65999999999997" as="sourcePoint" />
            <mxPoint x="460" y="320" as="targetPoint" />
            <Array as="points">
              <mxPoint x="380" y="320" />
            </Array>
          </mxGeometry>
        </mxCell>
        <mxCell id="WpSMhEHBoNJNKIzTw2ys-44" value="Submit completed tasks" style="text;strokeColor=none;align=center;fillColor=none;html=1;verticalAlign=middle;whiteSpace=wrap;rounded=0;" vertex="1" parent="1">
          <mxGeometry x="280" y="130" width="70" height="30" as="geometry" />
        </mxCell>
        <mxCell id="WpSMhEHBoNJNKIzTw2ys-39" value="" style="endArrow=classic;html=1;rounded=0;exitX=0.5;exitY=1;exitDx=0;exitDy=0;entryX=0;entryY=0.5;entryDx=0;entryDy=0;" edge="1" parent="1" source="WpSMhEHBoNJNKIzTw2ys-32" target="WpSMhEHBoNJNKIzTw2ys-38">
          <mxGeometry width="50" height="50" relative="1" as="geometry">
            <mxPoint x="70" y="85" as="sourcePoint" />
            <mxPoint x="150" y="85" as="targetPoint" />
            <Array as="points">
              <mxPoint y="520" />
            </Array>
          </mxGeometry>
        </mxCell>
        <mxCell id="WpSMhEHBoNJNKIzTw2ys-38" value="" style="ellipse;html=1;shape=endState;fillColor=#000000;strokeColor=#ff0000;" vertex="1" parent="1">
          <mxGeometry x="365" y="500" width="30" height="30" as="geometry" />
        </mxCell>
        <mxCell id="WpSMhEHBoNJNKIzTw2ys-45" value="Submit completed tasks page" style="rounded=1;whiteSpace=wrap;html=1;" vertex="1" parent="1">
          <mxGeometry x="460" y="290" width="120" height="60" as="geometry" />
        </mxCell>
        <mxCell id="WpSMhEHBoNJNKIzTw2ys-46" value="" style="endArrow=classic;html=1;rounded=0;exitX=1;exitY=0.5;exitDx=0;exitDy=0;" edge="1" parent="1">
          <mxGeometry width="50" height="50" relative="1" as="geometry">
            <mxPoint x="790" y="75" as="sourcePoint" />
            <mxPoint x="860" y="75" as="targetPoint" />
          </mxGeometry>
        </mxCell>
        <mxCell id="WpSMhEHBoNJNKIzTw2ys-48" value="Pick a TA to do the task" style="rounded=1;whiteSpace=wrap;html=1;" vertex="1" parent="1">
          <mxGeometry x="860" y="45" width="120" height="60" as="geometry" />
        </mxCell>
        <mxCell id="WpSMhEHBoNJNKIzTw2ys-49" value="" style="endArrow=classic;html=1;rounded=0;exitX=1;exitY=0.5;exitDx=0;exitDy=0;exitPerimeter=0;" edge="1" parent="1" source="WpSMhEHBoNJNKIzTw2ys-45">
          <mxGeometry width="50" height="50" relative="1" as="geometry">
            <mxPoint x="590" y="330" as="sourcePoint" />
            <mxPoint x="680" y="320" as="targetPoint" />
          </mxGeometry>
        </mxCell>
        <mxCell id="WpSMhEHBoNJNKIzTw2ys-50" value="Submit completed tasks page" style="rounded=1;whiteSpace=wrap;html=1;" vertex="1" parent="1">
          <mxGeometry x="680" y="290" width="120" height="60" as="geometry" />
        </mxCell>
      </root>
    </mxGraphModel>
  </diagram>
</mxfile>
